<?xml version="1.0" standalone="no"?>
<!DOCTYPE svg PUBLIC "-//W3C//DTD SVG 20010904//EN"
 "http://www.w3.org/TR/2001/REC-SVG-20010904/DTD/svg10.dtd">
<svg version="1.0" xmlns="http://www.w3.org/2000/svg"
 width="492.000000pt" height="108.000000pt" viewBox="0 0 492.000000 108.000000"
 preserveAspectRatio="xMidYMid meet">
<metadata>
Created by potrace 1.16, written by Peter Selinger 2001-2019
</metadata>
<g transform="translate(0.000000,108.000000) scale(0.100000,-0.100000)"
fill="#000000" stroke="none">
<path d="M4 1065 c-3 -8 -3 -19 1 -25 8 -13 4883 -14 4904 -1 8 5 11 16 8 25
-6 15 -219 16 -2457 16 -2133 0 -2451 -2 -2456 -15z"/>
<path d="M495 851 c-98 -25 -155 -94 -155 -189 0 -35 5 -54 18 -65 20 -19 62
-23 62 -7 0 6 -6 10 -14 10 -7 0 -19 7 -26 15 -34 41 50 157 124 171 48 9 77
0 154 -46 70 -43 149 -65 206 -58 33 4 35 2 29 -17 -5 -11 -8 -42 -8 -70 0
-100 64 -147 208 -153 124 -6 287 36 535 136 l52 22 -27 -42 c-38 -56 -44
-157 -13 -206 103 -165 479 -19 625 243 43 76 86 225 65 225 -5 0 -10 -8 -10
-18 0 -30 -65 -154 -113 -217 -103 -134 -282 -235 -416 -235 -56 0 -86 19
-101 65 -21 64 37 148 152 221 67 42 147 68 175 55 51 -23 35 -94 -34 -149
-45 -35 -116 -72 -158 -83 -27 -6 -25 -7 16 -8 34 -1 65 8 117 34 105 53 140
100 134 180 -8 93 -111 110 -258 41 -147 -68 -541 -185 -676 -201 -164 -20
-265 77 -175 168 38 37 123 81 193 98 79 20 123 -22 74 -71 -18 -18 -54 -26
-102 -22 -10 1 -18 -3 -18 -8 0 -6 28 -10 64 -10 55 0 67 3 90 26 53 53 25
126 -54 139 -57 10 -199 -31 -262 -76 -54 -39 -189 -17 -269 43 -71 53 -143
74 -204 59z"/>
<path d="M4318 846 c-26 -7 -62 -24 -80 -38 -60 -46 -121 -71 -185 -76 -58 -4
-69 -2 -136 32 -178 89 -311 81 -311 -19 0 -57 38 -85 115 -85 65 0 82 15 19
17 -46 2 -76 16 -90 43 -27 50 25 71 109 45 200 -62 270 -177 148 -242 -50
-27 -178 -22 -307 11 -150 39 -431 132 -525 174 -51 23 -101 37 -137 40 -53 4
-59 2 -88 -26 -35 -36 -40 -83 -13 -139 28 -60 164 -134 246 -132 l42 0 -46
13 c-57 15 -138 66 -179 112 -60 68 -24 140 57 114 99 -32 199 -101 244 -169
31 -47 36 -84 18 -124 -47 -103 -296 -30 -460 133 -74 73 -92 103 -168 270
-10 22 -11 20 -6 -19 27 -214 226 -427 455 -486 119 -31 204 -5 242 73 28 60
20 130 -23 191 -23 33 -26 42 -12 36 270 -110 429 -155 547 -155 101 0 147 12
191 51 46 41 62 96 43 153 l-14 41 44 -4 c62 -5 127 14 203 60 37 22 82 42
101 46 82 13 183 -73 176 -149 -2 -25 -8 -34 -26 -36 -26 -4 -20 -22 9 -22 53
0 75 74 43 148 -41 99 -139 146 -246 118z"/>
<path d="M2395 815 c-47 -46 -21 -136 42 -148 89 -17 147 89 83 153 -29 29
-94 27 -125 -5z"/>
<path d="M1605 709 c-125 -44 -270 -86 -393 -113 -63 -13 -117 -27 -120 -31
-15 -16 226 4 303 24 104 28 311 129 294 145 -2 2 -40 -9 -84 -25z"/>
<path d="M3230 729 c0 -15 116 -79 196 -108 117 -42 226 -62 319 -59 96 4 88
8 -75 43 -69 15 -196 50 -282 79 -87 29 -158 49 -158 45z"/>
<path d="M2392 565 c-128 -144 -146 -294 -51 -432 39 -56 108 -133 120 -133
15 0 120 135 143 185 42 90 40 178 -5 273 -24 49 -124 162 -144 162 -7 0 -36
-25 -63 -55z"/>
<path d="M1562 514 c-17 -14 -44 -47 -59 -72 -23 -39 -28 -59 -28 -115 0 -74
14 -97 61 -97 40 0 47 21 39 134 -7 97 -6 107 15 140 26 42 17 45 -28 10z"/>
<path d="M3312 533 c40 -80 41 -85 28 -175 -12 -81 -12 -90 5 -108 43 -47 99
-9 99 68 -1 65 -20 118 -62 164 -33 36 -80 71 -70 51z"/>
</g>
</svg>
