<?xml version="1.0" standalone="no"?>
<!DOCTYPE svg PUBLIC "-//W3C//DTD SVG 20010904//EN"
 "http://www.w3.org/TR/2001/REC-SVG-20010904/DTD/svg10.dtd">
<svg version="1.0" xmlns="http://www.w3.org/2000/svg"
 width="492.000000pt" height="108.000000pt" viewBox="0 0 492.000000 108.000000"
 preserveAspectRatio="xMidYMid meet">
<metadata>
Created by potrace 1.16, written by Peter Selinger 2001-2019
</metadata>
<g transform="translate(0.000000,108.000000) scale(0.100000,-0.100000)"
fill="#000000" stroke="none">
<path d="M2397 1015 c-30 -36 -67 -89 -83 -118 -25 -45 -29 -62 -29 -132 0
-65 5 -90 26 -135 30 -64 123 -170 149 -170 26 0 105 94 142 168 62 125 36
249 -84 389 -29 34 -56 62 -60 62 -4 1 -32 -28 -61 -64z"/>
<path d="M1486 818 c-38 -53 -12 -162 54 -230 55 -57 78 -63 48 -13 -18 32
-20 45 -13 130 9 119 4 135 -40 135 -24 0 -39 -7 -49 -22z"/>
<path d="M3338 815 c-8 -18 -8 -43 1 -100 13 -80 9 -126 -15 -146 -8 -6 -14
-15 -14 -20 0 -36 81 37 110 99 25 53 31 134 12 170 -19 33 -78 31 -94 -3z"/>
<path d="M1691 772 c-87 -47 -97 -193 -19 -278 16 -18 -7 -11 -120 32 -252 97
-410 128 -525 104 -65 -13 -117 -51 -137 -100 -12 -29 -10 -89 4 -122 7 -16 1
-18 -60 -18 -70 0 -112 -15 -224 -80 -80 -46 -175 -15 -218 72 -26 52 -23 80
11 96 21 10 20 11 -10 11 -39 1 -53 -20 -53 -79 0 -55 20 -99 63 -137 74 -65
170 -70 260 -12 106 67 145 82 215 83 54 1 73 -3 98 -21 17 -12 66 -34 110
-49 132 -44 224 -23 224 51 0 68 -64 107 -147 89 l-38 -7 53 -8 c60 -8 92 -31
92 -65 0 -48 -78 -45 -191 7 -124 57 -165 137 -99 193 80 67 236 47 623 -80
93 -31 197 -69 230 -85 34 -15 84 -34 113 -40 45 -10 57 -9 90 7 73 35 78 129
11 195 -42 42 -146 91 -205 95 l-47 4 45 -16 c72 -26 174 -99 196 -139 17 -33
18 -38 3 -63 -13 -22 -22 -27 -55 -26 -86 1 -238 104 -280 190 -25 51 -26 57
-12 92 11 29 22 40 55 51 36 13 48 13 109 -2 157 -38 295 -137 385 -275 26
-40 55 -96 64 -125 33 -101 42 -76 13 38 -30 121 -156 284 -274 355 -125 75
-278 102 -353 62z"/>
<path d="M3010 771 c-199 -63 -358 -226 -415 -423 -25 -87 -15 -118 12 -39 68
196 249 360 449 407 82 19 126 12 154 -23 59 -75 -20 -197 -182 -278 -104 -51
-158 -43 -158 25 0 53 94 133 204 172 l51 18 -52 -4 c-57 -5 -147 -44 -194
-83 -37 -32 -59 -73 -59 -112 0 -109 99 -136 247 -67 77 36 374 135 528 176
44 12 123 24 175 27 85 4 100 2 140 -19 57 -29 71 -63 47 -113 -39 -82 -265
-171 -307 -120 -30 36 26 85 97 85 28 0 34 3 23 10 -8 5 -30 10 -48 10 -83 0
-138 -58 -113 -119 31 -74 168 -67 321 16 59 32 70 35 118 29 66 -8 109 -26
190 -78 98 -64 198 -64 274 0 87 73 90 222 5 222 l-32 0 25 -13 c53 -26 27
-113 -49 -164 -54 -37 -111 -31 -191 17 -82 49 -117 60 -196 60 l-61 0 15 45
c13 41 13 50 -3 90 -20 54 -51 80 -118 100 -64 19 -124 19 -227 -1 -81 -15
-298 -86 -396 -129 l-52 -23 31 49 c58 93 44 195 -32 246 -43 29 -139 30 -221
4z"/>
<path d="M1096 512 c-3 -5 54 -21 127 -36 73 -15 206 -52 296 -82 90 -30 166
-53 168 -50 14 14 -143 95 -254 129 -117 37 -323 61 -337 39z"/>
<path d="M3636 509 c-99 -14 -207 -48 -291 -90 -162 -80 -154 -94 21 -34 130
44 276 83 391 106 35 6 60 15 57 20 -6 11 -98 10 -178 -2z"/>
<path d="M2395 385 c-18 -17 -25 -35 -25 -62 1 -116 158 -126 177 -11 5 32 1
41 -25 68 -39 39 -91 41 -127 5z"/>
<path d="M0 20 c0 -20 4 -20 2458 -18 2176 3 2457 5 2457 18 0 13 -281 15
-2457 18 -2454 2 -2458 2 -2458 -18z"/>
</g>
</svg>
